# xmcd
#
# Track frame offsets:
# 150
# 15365
# 31502
# 45892
# 68802
# 84072
# 110745
# 138260
# 159075
# 186770
# 208985
# 234327
#
# Disc length: 3383 seconds
#
#
# Revision: 0
# Processed by: cddbd v1.4PL0 Copyright (c) Steve Scherf et al.
# Submitted via: FreeRIP 2.00 
#
DISCID=830d350c
DTITLE=red beans and rice - nothin' but the blues
DYEAR=1995
DGENRE=Blues
TTITLE0=Have A Good Time
TTITLE1=Business Man
TTITLE2=How Can you Be So Mean
TTITLE3=Trouble In Mind
TTITLE4=Give Me A Bullet
TTITLE5=Just Don't Know
TTITLE6=Nothin' But the Blues
TTITLE7=Kidney Stew
TTITLE8=The Dark Side
TTITLE9=Ain't Superstitious
TTITLE10=Walkin' Thru The Park
TTITLE11=Big Legged Woman
EXTD=
EXTT0=
EXTT1=
EXTT2=
EXTT3=
EXTT4=
EXTT5=
EXTT6=
EXTT7=
EXTT8=
EXTT9=
EXTT10=
EXTT11=
PLAYORDER=
